<svg width="150" height="19" viewBox="0 0 150 19" fill="none" xmlns="http://www.w3.org/2000/svg">
<path d="M0 18.4427V0.209229H3.27367V15.4885H9.80561V18.4427H0Z" fill="#1A1C21"/>
<path d="M16.4269 16.1451C18.523 16.1451 19.8054 15.1994 19.8054 13.5267V12.0635C19.6728 12.2206 19.4385 12.3499 19.1519 12.4578C18.5508 12.6642 18.1562 12.7196 16.8985 12.849C15.0675 13.0585 14.1489 13.6345 14.1489 14.5463C14.152 15.566 14.9873 16.1451 16.4269 16.1451ZM16.7968 10.4154C19.0224 10.2028 19.8054 9.91635 19.8054 8.89671C19.8054 8.08654 19.0717 7.45811 17.6075 7.45811C16.1957 7.45811 15.0151 8.03109 14.0718 9.18319L12.136 7.53513C13.4152 5.72996 15.2247 4.84277 17.5551 4.84277C20.8257 4.84277 22.8694 6.41383 22.8694 9.10618V14.9406V15.9603V18.3908V18.4616H20.4342V17.1894C19.5187 18.2645 18.0236 18.8128 15.9552 18.8128C13.0515 18.8128 11.0879 17.2171 11.0879 14.8082C11.0879 12.1127 12.8912 10.7573 16.7968 10.4154Z" fill="#1A1C21"/>
<path d="M34.7157 14.7276C35.474 13.9698 35.8408 13.0025 35.8408 11.8504C35.8408 10.7014 35.474 9.73104 34.7157 8.97016C33.9851 8.21236 33.0665 7.81805 31.9414 7.81805C30.8163 7.81805 29.8453 8.20928 29.0592 8.97016C28.3009 9.73104 27.9063 10.6983 27.9063 11.8504C27.9063 13.0025 28.2978 13.9698 29.0592 14.7276C29.8483 15.4885 30.8163 15.8797 31.9414 15.8797C33.0665 15.8797 33.982 15.4885 34.7157 14.7276ZM25.0026 18.4427V0.209229H28.1437V7.16807C28.5907 5.88658 30.1874 4.9686 32.3606 4.9686C34.2194 4.9686 35.7884 5.62474 37.0461 6.9586C38.3284 8.26473 38.9573 9.88507 38.9573 11.8504C38.9573 13.8127 38.3284 15.433 37.0461 16.77C35.7884 18.0761 34.2194 18.7323 32.3606 18.7323C30.1874 18.7323 28.5907 17.8143 28.1437 16.5328V18.4396H25.0026V18.4427Z" fill="#1A1C21"/>
<path d="M50.4738 14.808C51.2598 13.9979 51.6544 13.0306 51.6544 11.8538C51.6544 10.674 51.2598 9.70674 50.4738 8.92429C49.6908 8.11104 48.7198 7.71982 47.57 7.71982C46.3894 7.71982 45.4214 8.11104 44.6354 8.92429C43.8771 9.70674 43.4856 10.6771 43.4856 11.8538C43.4856 13.0306 43.8771 13.9979 44.6354 14.808C45.4214 15.5936 46.3894 15.9848 47.57 15.9848C48.7198 15.9848 49.6908 15.5936 50.4738 14.808ZM40.3691 11.8538C40.3691 9.89157 41.075 8.21578 42.4622 6.88193C43.8493 5.54807 45.5509 4.87036 47.57 4.87036C49.586 4.87036 51.2876 5.55115 52.6747 6.88193C54.0619 8.21578 54.7678 9.89157 54.7678 11.8538C54.7678 13.8161 54.0619 15.4888 52.6747 16.8258C51.2876 18.1596 49.586 18.8373 47.57 18.8373C45.5509 18.8373 43.8493 18.1596 42.4622 16.8258C41.0781 15.4888 40.3691 13.8161 40.3691 11.8538Z" fill="#1A1C21"/>
<path d="M56.1826 18.4432V5.25867H59.2991V7.22095C59.9279 5.83472 61.3675 4.99683 63.2263 4.99683C63.5931 4.99683 63.9044 5.02147 64.1695 5.07692V8.10813C63.778 8.03112 63.3311 7.97875 62.8625 7.97875C60.6893 7.97875 59.3022 9.34033 59.3022 11.5121V18.4432H56.1826Z" fill="#1A1C21"/>
<path d="M78.0347 8.10762V5.25816V0.209229H81.1758V5.25816H84.0796V8.10762H81.1758V13.9945C81.1758 15.433 81.6752 15.9567 82.8219 15.9567C83.2164 15.9567 83.5833 15.9321 83.9224 15.852V18.6522C83.4785 18.7569 82.9298 18.8093 82.3009 18.8093C79.4496 18.8093 78.0347 17.3183 78.0347 14.3364V8.10762Z" fill="#1A1C21"/>
<path d="M95.5376 14.808C96.3237 13.9979 96.7152 13.0306 96.7152 11.8538C96.7152 10.674 96.3206 9.70674 95.5376 8.92429C94.7516 8.11104 93.7837 7.71982 92.6308 7.71982C91.4502 7.71982 90.4853 8.11104 89.6993 8.92429C88.9379 9.70674 88.5495 10.6771 88.5495 11.8538C88.5495 13.0306 88.941 13.9979 89.6993 14.808C90.4853 15.5936 91.4502 15.9848 92.6308 15.9848C93.7837 15.9848 94.7485 15.5936 95.5376 14.808ZM85.4299 11.8538C85.4299 9.89157 86.1389 8.21578 87.5261 6.88193C88.9132 5.54807 90.6148 4.87036 92.6308 4.87036C94.6468 4.87036 96.3483 5.55115 97.7355 6.88193C99.1226 8.21578 99.8316 9.89157 99.8316 11.8538C99.8316 13.8161 99.1226 15.4888 97.7355 16.8258C96.3483 18.1596 94.6468 18.8373 92.6308 18.8373C90.6148 18.8373 88.9132 18.1596 87.5261 16.8258C86.1389 15.4888 85.4299 13.8161 85.4299 11.8538Z" fill="#1A1C21"/>
<path d="M101.179 18.4432V5.25867H104.292V7.22095C104.921 5.83472 106.36 4.99683 108.219 4.99683C108.586 4.99683 108.9 5.02147 109.159 5.07692V8.10813C108.771 8.03112 108.324 7.97875 107.852 7.97875C105.682 7.97875 104.292 9.34033 104.292 11.5121V18.4432H101.179Z" fill="#1A1C21"/>
<path d="M110.839 5.25841H113.98V18.4429H110.839V5.25841ZM110.522 1.85754C110.522 0.810171 111.36 0 112.408 0C113.432 0 114.267 0.813251 114.267 1.85754C114.267 2.90183 113.432 3.71508 112.408 3.71508C111.36 3.71816 110.522 2.90183 110.522 1.85754Z" fill="#1A1C21"/>
<path d="M69.6566 16.1451C71.7528 16.1451 73.0351 15.1994 73.0351 13.5267V12.0635C72.9056 12.2206 72.6683 12.3499 72.3816 12.4578C71.7805 12.6642 71.389 12.7196 70.1313 12.849C68.2972 13.0585 67.3817 13.6345 67.3817 14.5463C67.3786 15.566 68.214 16.1451 69.6566 16.1451ZM70.0204 10.4154C72.246 10.2028 73.032 9.91635 73.032 8.89671C73.032 8.08654 72.2984 7.45811 70.8342 7.45811C69.4193 7.45811 68.2417 8.03109 67.2985 9.18319L65.3626 7.53513C66.645 5.72996 68.4513 4.84277 70.7817 4.84277C74.0523 4.84277 76.0961 6.41383 76.0961 9.10618V14.9406V15.9603V18.3908V18.4616H73.6609V17.1894C72.7453 18.2645 71.2534 18.8128 69.185 18.8128C66.2812 18.8128 64.3176 17.2171 64.3176 14.8082C64.3145 12.1127 66.1209 10.7573 70.0204 10.4154Z" fill="#1A1C21"/>
<path d="M120.679 16.1451C122.775 16.1451 124.057 15.1994 124.057 13.5267V12.0635C123.928 12.2206 123.691 12.3499 123.404 12.4578C122.803 12.6642 122.411 12.7196 121.154 12.849C119.323 13.0585 118.404 13.6345 118.404 14.5463C118.401 15.566 119.239 16.1451 120.679 16.1451ZM121.046 10.4154C123.271 10.2028 124.054 9.91635 124.054 8.89671C124.054 8.08654 123.321 7.45811 121.856 7.45811C120.445 7.45811 119.264 8.03109 118.324 9.18319L116.388 7.53513C117.67 5.72996 119.477 4.84277 121.807 4.84277C125.078 4.84277 127.121 6.41383 127.121 9.10618V14.9406V15.9603V18.3908V18.4616H124.686V17.1894C123.771 18.2645 122.279 18.8128 120.21 18.8128C117.307 18.8128 115.34 17.2171 115.34 14.8082C115.34 12.1127 117.146 10.7573 121.046 10.4154Z" fill="#1A1C21"/>
<path d="M150 7.75644H142.448V0.209229H139.307V7.75644H131.754V10.8955H139.307V18.4427H142.448V10.8955H150V7.75644Z" fill="#1A1C21"/>
</svg>
